<?xml version="1.0" encoding="UTF-8"?>
<!DOCTYPE svg PUBLIC "-//W3C//DTD SVG 1.1//EN" "http://www.w3.org/Graphics/SVG/1.1/DTD/svg11.dtd">
<!-- Creator: CorelDRAW 2020 (64 Bit) -->
<svg xmlns="http://www.w3.org/2000/svg" xml:space="preserve" width="13.9698mm" height="15.2398mm" version="1.1" style="shape-rendering:geometricPrecision; text-rendering:geometricPrecision; image-rendering:optimizeQuality; fill-rule:evenodd; clip-rule:evenodd"
viewBox="0 0 1396.98 1523.98"
 xmlns:xlink="http://www.w3.org/1999/xlink"
 xmlns:xodm="http://www.corel.com/coreldraw/odm/2003">
 <defs>
  <style type="text/css">
   <![CDATA[
    .fil5 {fill:#253B56}
    .fil1 {fill:#2B4568}
    .fil4 {fill:#324A78}
    .fil3 {fill:#90A9B6}
    .fil2 {fill:#ACB9C9}
    .fil0 {fill:#FEFEFE}
   ]]>
  </style>
 </defs>
 <g id="Camada_x0020_1">
  <metadata id="CorelCorpID_0Corel-Layer"/>
  <path class="fil0" d="M701.18 628.51c1.33,-157.15 17.26,-204.54 201.24,-178.8l-0.12 94.1c-93.63,9.29 -87.59,-22.17 -86.53,84.53l86.08 2.23 -7.66 91.45 -78.39 5.42 -0.52 278.01 -113.89 -0.04 -0.21 -278.83 -56.65 -4.79 -0.3 -92.01 56.95 -1.27zm504.08 152.54c42.94,-255.05 -151.85,-463.84 -362.46,-496.14 -262.13,-40.19 -468.43,145.24 -502.03,362.57 -87.97,568.93 766.78,713.79 864.49,133.57z"/>
  <path class="fil1" d="M1205.26 781.05c-97.71,580.22 -952.46,435.36 -864.49,-133.57 33.6,-217.33 239.9,-402.76 502.03,-362.57 210.61,32.3 405.4,241.09 362.46,496.14zm157.52 177.8c-15.37,-101.85 -49.98,-83.79 -26.46,-223.33 13.63,-80.78 -44.65,-46.71 -58.57,-208.65 -14.81,-172.35 -8.23,-166.16 -81.44,-191.47 -76.8,-26.56 -112.95,-58.69 -147.24,-119.84 -161.11,-5.71 -146.3,-49.63 -208.08,-69.61 -43.99,33.53 -172.79,100.58 -233.61,107.97 -57.7,7.02 -48.61,-10.63 -92.64,27.2 -118.97,102.24 -232.21,49.57 -349.12,124.8 -124.7,80.24 -164.01,167.85 -130.94,313.15 30.93,135.93 120.47,185.38 229.17,246.02 145.8,81.34 146.16,122.3 201.66,144.82 218.35,88.59 238.52,190.59 355.7,236.83 115.29,45.49 115.85,-37.21 230.99,-104.08 106.02,-61.59 48.64,-101.31 167.71,-188.55 41.77,-30.6 113.17,-61.12 142.87,-95.26z"/>
  <path class="fil2" d="M1276.98 1173.12l-152.55 30.01 -30.26 55.08c-29.67,51.15 -72.75,99.94 -136.84,118.28 -88.54,25.35 -181.73,-43.2 -242.15,-93.27 -100.36,-83.17 -147.21,-138.7 -264.03,-159.28 -22.07,-3.89 -45.93,-11.35 -66.73,-15.61 -52.9,-10.82 -99.53,-15.25 -147.59,-28.58 -62.13,467.38 338.7,278.43 534.6,358.47 81.11,33.14 253.21,155.25 328.35,38.64 70.44,-109.33 45.14,-216.69 177.2,-303.74z"/>
  <path class="fil3" d="M57.78 501.61c84.09,-165.2 300.92,-148.24 380.72,-183.32 67.24,-29.56 61.44,-36.18 80.41,-67.17 18.18,-29.72 42.66,-45.76 69.08,-74.35 53.61,-58.01 73.38,-108.21 187.24,-101.65 -77.66,-36.58 -125.5,-72.46 -242.54,-66.97 -180.02,8.46 -301.47,127.63 -373.23,280.25 -18.92,40.23 -117.26,136.23 -118.44,174.46 -1.22,39.72 -6.59,14.06 16.76,38.75z"/>
  <path class="fil4" d="M701.18 628.51l-56.95 1.27 0.3 92.01 56.65 4.79 0.21 278.83 113.89 0.04 0.52 -278.01 78.39 -5.42 7.66 -91.45 -86.08 -2.23c-1.06,-106.7 -7.1,-75.24 86.53,-84.53l0.12 -94.1c-183.98,-25.74 -199.91,21.65 -201.24,178.8z"/>
  <path class="fil5" d="M1124.43 1203.13l152.55 -30.01c98.74,-57.51 122.49,-54.94 94.64,-188.85 -100.68,37.63 -208.14,129.18 -247.19,218.86z"/>
 </g>
</svg>
