<?xml version="1.0" encoding="UTF-8"?>
<!DOCTYPE svg PUBLIC "-//W3C//DTD SVG 1.1//EN" "http://www.w3.org/Graphics/SVG/1.1/DTD/svg11.dtd">
<!-- Creator: CorelDRAW 2020 (64 Bit) -->
<svg xmlns="http://www.w3.org/2000/svg" xml:space="preserve" width="13.9698mm" height="15.2398mm" version="1.1" style="shape-rendering:geometricPrecision; text-rendering:geometricPrecision; image-rendering:optimizeQuality; fill-rule:evenodd; clip-rule:evenodd"
viewBox="0 0 1396.98 1523.98"
 xmlns:xlink="http://www.w3.org/1999/xlink"
 xmlns:xodm="http://www.corel.com/coreldraw/odm/2003">
 <defs>
  <style type="text/css">
   <![CDATA[
    .fil5 {fill:#89025B}
    .fil4 {fill:#97016A}
    .fil0 {fill:#A80177}
    .fil3 {fill:#CC0C32}
    .fil2 {fill:#F9F9FC}
    .fil6 {fill:#FAFFFD}
    .fil1 {fill:#FEFEFE}
   ]]>
  </style>
 </defs>
 <g id="Camada_x0020_1">
  <metadata id="CorelCorpID_0Corel-Layer"/>
  <g id="_2628503603792">
   <path class="fil0" d="M1263.54 778.05c-33.19,225.12 -228.87,411.8 -492.07,377.39 -223.43,-29.21 -407.8,-233.56 -374.15,-495.46 27.81,-216.45 236.5,-407.47 496.44,-370.71 214.2,30.3 407.03,236.11 369.78,488.78zm89.96 170.11c-3.07,-95.8 -51.32,-85.63 -25.98,-232.44 14.64,-84.77 -43.15,-41.54 -58.14,-208.6 -15.52,-173.06 -7.64,-165.51 -81.8,-191.15 -101.83,-35.2 -91.92,-53.64 -147.55,-120.23 -160.95,-6.89 -145.58,-49.18 -206.37,-69.43 -34.93,25.84 -101.82,59.38 -145.6,79.15 -141.8,64.05 -120.38,-0.75 -182.09,55.29 -136.11,123.62 -335.51,20.45 -466.89,244.91 -35.32,60.33 -29.22,128.06 -11.2,200.46 50.53,202.98 239.69,208.95 367.33,335.91 91.52,91.03 110.63,28.96 284.38,189.59 221.8,205.04 230.49,71.92 358.25,-6.29 41.96,-25.68 40.81,-12.1 64.65,-54.36 67.22,-119.12 123.75,-156.79 251.01,-222.81z"/>
   <path class="fil1" d="M678.94 488.99c65.34,-19.53 170.7,-13.77 242.85,-10.12 183.89,9.32 171.43,146.72 161.25,341.9 -9.85,189.03 -140.78,168.38 -339.74,162.59 -84.34,-2.46 -134.04,-26.85 -154.82,-92.29 -15.39,-48.47 -11.59,-191.53 -9.96,-248.73 2.54,-88.82 25.78,-131.04 100.42,-153.35zm584.6 289.06c37.25,-252.67 -155.58,-458.48 -369.78,-488.78 -259.94,-36.76 -468.63,154.26 -496.44,370.71 -33.65,261.9 150.72,466.25 374.15,495.46 263.2,34.41 458.88,-152.27 492.07,-377.39z"/>
   <path class="fil2" d="M800.87 604.59c167.09,-40.48 225.01,211.7 64.03,252.32 -178.67,45.07 -224.14,-213.53 -64.03,-252.32zm-173.17 241.2c7.18,68.96 44.95,86.77 115.9,90.26 53.05,2.62 149.59,4.63 200.56,-1.77 64.28,-8.06 87.91,-43.15 91.47,-113.46 2.5,-49.57 4.32,-157.17 -1.93,-203.94 -9.44,-70.66 -47.32,-88.71 -120.43,-90.61 -187.35,-4.87 -280.68,-24.34 -287.45,116.16 -2.8,58.15 -4.05,146.38 1.88,203.36z"/>
   <path class="fil3" d="M627.7 845.79c-5.93,-56.98 -4.68,-145.21 -1.88,-203.36 6.77,-140.5 100.1,-121.03 287.45,-116.16 73.11,1.9 110.99,19.95 120.43,90.61 6.25,46.77 4.43,154.37 1.93,203.94 -3.56,70.31 -27.19,105.4 -91.47,113.46 -50.97,6.4 -147.51,4.39 -200.56,1.77 -70.95,-3.49 -108.72,-21.3 -115.9,-90.26zm51.24 -356.8c-74.64,22.31 -97.88,64.53 -100.42,153.35 -1.63,57.2 -5.43,200.26 9.96,248.73 20.78,65.44 70.48,89.83 154.82,92.29 198.96,5.79 329.89,26.44 339.74,-162.59 10.18,-195.18 22.64,-332.58 -161.25,-341.9 -72.15,-3.65 -177.51,-9.41 -242.85,10.12z"/>
   <path class="fil4" d="M856.98 1362.25c-32.03,-18.79 -66.31,-24.84 -105.92,-49.85 -73.06,-46.12 -171.49,-165.94 -288.24,-198.12 40.8,92.06 136.81,254.95 250.3,279.42 34.06,7.34 78.29,4.58 110.97,-9.34l32.89 -22.11z"/>
   <path class="fil3" d="M800.16 655.83c107.6,-41.08 150.79,114.89 64.81,150.49 -107.53,44.52 -165.12,-112.19 -64.81,-150.49zm0.71 -51.24c-160.11,38.79 -114.64,297.39 64.03,252.32 160.98,-40.62 103.06,-292.8 -64.03,-252.32z"/>
   <path class="fil5" d="M1115.85 1186.65c63.47,-10.53 138.54,-25.03 193.61,-54.38 78.48,-41.82 72.74,-79.18 53.08,-167.59 -34.51,12.91 -114.74,65.24 -143.17,85.84 -31.04,22.49 -86.34,88.52 -103.52,136.13z"/>
   <path class="fil6" d="M800.16 655.83c-100.31,38.3 -42.72,195.01 64.81,150.49 85.98,-35.6 42.79,-191.57 -64.81,-150.49z"/>
  </g>
 </g>
</svg>
