<?xml version="1.0" encoding="UTF-8"?>
<!DOCTYPE svg PUBLIC "-//W3C//DTD SVG 1.1//EN" "http://www.w3.org/Graphics/SVG/1.1/DTD/svg11.dtd">
<!-- Creator: CorelDRAW 2020 (64 Bit) -->
<svg xmlns="http://www.w3.org/2000/svg" xml:space="preserve" width="13.9698mm" height="15.2398mm" version="1.1" style="shape-rendering:geometricPrecision; text-rendering:geometricPrecision; image-rendering:optimizeQuality; fill-rule:evenodd; clip-rule:evenodd"
viewBox="0 0 1396.98 1523.98"
 xmlns:xlink="http://www.w3.org/1999/xlink"
 xmlns:xodm="http://www.corel.com/coreldraw/odm/2003">
 <defs>
  <style type="text/css">
   <![CDATA[
    .fil4 {fill:#B1181C}
    .fil5 {fill:#C81F1F}
    .fil1 {fill:#C82227}
    .fil7 {fill:#E7DFE0}
    .fil3 {fill:#EB8F94}
    .fil2 {fill:#F7BFC0}
    .fil0 {fill:#FEFEFE}
    .fil6 {fill:white}
   ]]>
  </style>
 </defs>
 <g id="Camada_x0020_1">
  <metadata id="CorelCorpID_0Corel-Layer"/>
  <path class="fil0" d="M533.83 857.4c-5.06,-20.74 -2.6,-148.54 -2.08,-178.58 1.83,-105.46 82.79,-75.26 296.9,-75.6 59.68,-0.09 128.48,-14.62 141.91,44.24 5.73,25.1 3.54,144.03 2.64,176.66 -2.92,105.63 -87.19,75.23 -296.96,75.69 -53.36,0.12 -129.03,12.41 -142.41,-42.41zm149.75 -545.95c-216.43,40.49 -399.99,240.47 -354.32,503.4 37.18,214.04 239.11,402.62 502.31,358.07 216.99,-36.73 404.64,-239.08 359.22,-508.59 -35.6,-211.22 -244.54,-402.02 -507.21,-352.88z"/>
  <path class="fil1" d="M683.58 311.45c262.67,-49.14 471.61,141.66 507.21,352.88 45.42,269.51 -142.23,471.86 -359.22,508.59 -263.2,44.55 -465.13,-144.03 -502.31,-358.07 -45.67,-262.93 137.89,-462.91 354.32,-503.4zm670.81 639.09c-16.96,-100.64 -49.33,-88.21 -26.37,-223.89 13.28,-78.44 -45.38,-49.5 -58.78,-208.36 -3.55,-42.16 -5.55,-82.85 -13.32,-121.59 -24.75,-123.56 -108.49,-8.89 -215.07,-189.48 -158.9,-3.74 -146.5,-48.13 -206.88,-69.1 -210.4,148.02 -264.51,79.2 -327.62,134.39 -138.93,121.46 -330.89,22.92 -463.6,239.44 -36.96,60.3 -33.38,120.09 -15.88,198.92 29.41,132.44 123.78,188.42 228.76,245.93 148.29,81.24 143.93,121.27 201.74,145.01 35.43,14.55 47.99,18.2 81.36,36.94 129.48,72.68 178.2,158.85 275.04,199.01 111.62,46.29 117.76,-39.09 230.55,-103.33 48.79,-27.78 31.51,-11.1 60.8,-58.35 121.4,-195.87 183.31,-148.69 249.27,-225.54z"/>
  <path class="fil2" d="M1254.9 1168.5l-137.71 25.61c-5.65,6.46 -3.93,4.47 -11.38,16.31l-31.35 53.97c-46.21,72.04 -125.75,130.57 -219.54,98.05 -6.56,28.61 12.46,10.14 -24.84,30.24 -69.32,37.33 -165.95,6.95 -226.92,-55.81 -50.56,-52.03 -70.62,-104.52 -109.58,-161.67 -38.33,-56.21 -27.22,-39.5 -15.19,-46.82l-13.95 -7.75c-1.77,-0.73 -4.74,-2.33 -6.91,-3.15l-40.42 -10.41c-37.35,-9.06 -165.94,-36.92 -192.23,-31.81 -24.07,151.31 18.8,273.05 130.99,314.03 125.28,45.76 264.77,-19.21 412.9,45.5 70.96,31 253.67,153.85 325.51,35.35 54.1,-89.26 55.64,-193.52 130.52,-266.94 21.06,-20.64 14.67,-8.37 30.1,-34.7z"/>
  <path class="fil3" d="M49.67 493.29c85.25,-166.26 299.06,-147.33 380.92,-183.74 71.49,-31.79 59.15,-46.37 147.81,-142.63 56.07,-60.87 69.53,-99.66 187.12,-101.45 -79.84,-26.77 -74.94,-67.5 -250.49,-61.62 -177.03,5.92 -294.36,127.84 -363.39,276.69 -30.18,65.1 -52,48.86 -104.96,145.03 -32.06,58.23 -8.23,55.89 2.99,67.72z"/>
  <path class="fil1" d="M854.92 1362.44c-77.88,0.91 -150.79,-75.41 -192.15,-110.54 -59.68,-50.7 -101.14,-83.4 -184.38,-123.52 -12.03,7.32 -23.14,-9.39 15.19,46.82 38.96,57.15 59.02,109.64 109.58,161.67 60.97,62.76 157.6,93.14 226.92,55.81 37.3,-20.1 18.28,-1.63 24.84,-30.24z"/>
  <path class="fil4" d="M1117.19 1194.11l137.71 -25.61c110.23,-47.16 135.62,-62.86 110.68,-190.64 -104.67,34.94 -211.19,130.07 -248.39,216.25z"/>
  <g id="_2628404743872">
   <path class="fil5" d="M750.5 700.8c0.21,-0.42 -0.21,-0.06 0.3,-0.32l7.41 3.95c2.41,1.3 5,2.52 7.45,3.81l22.44 11.66c4.41,2.31 80.75,41.76 81.65,42.81 -1.09,0.47 -2.64,1.39 -3.76,2.03l-11.01 5.9c-0.9,0.62 -2.25,1.3 -3.22,1.77l-9.78 5.14c-4.33,2.34 -8.65,4.41 -13.03,6.74l-26.16 13.38c-4.45,2.23 -8.66,4.46 -13.05,6.71 -4.3,2.2 -8.8,4.45 -13.03,6.75l-25.84 13.72 -0.37 -124.05zm27.9 -88.81c-3.54,0.21 -7.95,0.11 -11.56,0.11 -11.5,0 -23.42,0.37 -34.89,0.57 -27.36,0.49 -63.32,1.59 -90.25,3.94 -13.74,1.2 -25.13,3.09 -36.25,11.05 -9.18,6.58 -15.53,13.54 -20.43,26.66 -4.46,11.97 -6.11,26 -7.5,39.57 -4.4,43.08 -3.27,92.37 -0.7,136.27 1.24,21.28 4.13,48.11 16.55,65.86 8.59,12.28 23.45,18.67 37.98,21.15 13.92,2.38 29.12,2.94 43.58,3.56 15.2,0.66 30.5,0.83 45.78,1.29 31.03,0.91 62.18,0.81 93.41,0.84 44.23,0.03 91.66,-2.14 135.86,-5.31 15.85,-1.14 23.14,-1.34 36.95,-10.36 10.37,-6.76 15.94,-15.29 20.37,-26.72 4.8,-12.38 6.66,-24.88 7.99,-39.11 1.38,-14.77 2.4,-29.47 2.47,-44.57 0.08,-15.7 -0.06,-31.48 -0.05,-47.09 0.01,-15.51 -0.6,-30.36 -1.64,-45.54 -1.66,-24.07 -4.73,-45.19 -16.92,-65.46 -3.77,-6.28 -12.79,-12.82 -19.36,-16.1 -12.7,-6.34 -25.34,-6.74 -39.51,-7.63 -22.55,-1.41 -45.61,-1.96 -68.21,-2.48 -27.77,-0.64 -54.36,-0.59 -81.98,-0.59 -3.71,0 -8.09,-0.13 -11.69,0.09z"/>
   <path class="fil6" d="M854.98 770.64l-26.03 -17.56c-8.85,-5.93 -17.53,-11.59 -26.15,-17.46l-48.91 -32.66c-0.87,-0.56 -2.54,-1.84 -3.39,-2.16l0.37 124.05 25.84 -13.72c4.23,-2.3 8.73,-4.55 13.03,-6.75 4.39,-2.25 8.6,-4.48 13.05,-6.71l26.16 -13.38c4.38,-2.33 8.7,-4.4 13.03,-6.74l9.78 -5.14c0.97,-0.47 2.32,-1.15 3.22,-1.77z"/>
   <path class="fil7" d="M750.5 700.8c0.85,0.32 2.52,1.6 3.39,2.16l48.91 32.66c8.62,5.87 17.3,11.53 26.15,17.46l26.03 17.56 11.01 -5.9c1.12,-0.64 2.67,-1.56 3.76,-2.03 -0.9,-1.05 -77.24,-40.5 -81.65,-42.81l-22.44 -11.66c-2.45,-1.29 -5.04,-2.51 -7.45,-3.81l-7.41 -3.95c-0.51,0.26 -0.09,-0.1 -0.3,0.32z"/>
  </g>
 </g>
</svg>
